<svg xmlns="http://www.w3.org/2000/svg" viewBox="0 0 512 512" width="512" height="512">
  <rect width="512" height="512" rx="100" fill="#212529"/>
  <!-- Awning roof -->
  <polygon points="100,180 412,180 440,250 72,250" fill="#ffc107"/>
  <!-- Awning stripes -->
  <polygon points="140,180 185,180 185,250 130,250" fill="#f8f9fa"/>
  <polygon points="230,180 282,180 282,250 230,250" fill="#f8f9fa"/>
  <polygon points="327,180 372,180 382,250 327,250" fill="#f8f9fa"/>
  <!-- Building body -->
  <rect x="96" y="250" width="320" height="150" fill="#f8f9fa"/>
  <!-- Windows -->
  <rect x="124" y="275" width="60" height="60" rx="6" fill="#2d3238"/>
  <line x1="154" y1="275" x2="154" y2="335" stroke="#ffc107" stroke-width="4"/>
  <line x1="124" y1="305" x2="184" y2="305" stroke="#ffc107" stroke-width="4"/>
  <rect x="328" y="275" width="60" height="60" rx="6" fill="#2d3238"/>
  <line x1="358" y1="275" x2="358" y2="335" stroke="#ffc107" stroke-width="4"/>
  <line x1="328" y1="305" x2="388" y2="305" stroke="#ffc107" stroke-width="4"/>
  <!-- Door -->
  <rect x="226" y="280" width="60" height="120" rx="4" fill="#212529"/>
  <circle cx="270" cy="340" r="5" fill="#ffc107"/>
  <!-- Base foundation -->
  <rect x="80" y="400" width="352" height="16" rx="4" fill="#ffc107"/>
</svg>
